Coordinates
version=1
nRows=20
nColumns=63
inDegrees=yes

Units are S.I. units (second, meters, Newtons, ...)
If the header above contains a line with 'inDegrees', this indicates whether rotational values are in degrees (yes) or radians (no).

endheader
time	pelvis_tilt	pelvis_list	pelvis_rotation	pelvis_tx	pelvis_ty	pelvis_tz	hip_flexion_r	hip_adduction_r	hip_rotation_r	knee_angle_r	knee_angle_r_beta	ankle_angle_r	subtalar_angle_r	mtp_angle_r	hip_flexion_l	hip_adduction_l	hip_rotation_l	knee_angle_l	knee_angle_l_beta	ankle_angle_l	subtalar_angle_l	mtp_angle_l	L5_S1_Flex_Ext	L5_S1_Lat_Bending	L5_S1_axial_rotation	L4_L5_Flex_Ext	L4_L5_Lat_Bending	L4_L5_axial_rotation	L3_L4_Flex_Ext	L3_L4_Lat_Bending	L3_L4_axial_rotation	L2_L3_Flex_Ext	L2_L3_Lat_Bending	L2_L3_axial_rotation	L1_L2_Flex_Ext	L1_L2_Lat_Bending	L1_L2_axial_rotation	L1_T12_Flex_Ext	L1_T12_Lat_Bending	L1_T12_axial_rotation	Abs_r3	Abs_r2	Abs_r1	Abs_t1	Abs_t2	neck_flexion	neck_bending	neck_rotation	arm_flex_r	arm_add_r	arm_rot_r	elbow_flex_r	pro_sup_r	wrist_flex_r	wrist_dev_r	arm_flex_l	arm_add_l	arm_rot_l	elbow_flex_l	pro_sup_l	wrist_flex_l	wrist_dev_l
0.000000	-0.561984	-3.590830	85.969396	-0.102830	0.790376	0.667332	6.820678	-3.428216	-1.404608	16.056630	0.280241	32.808696	5.739932	0.000000	3.084600	1.330844	-11.779486	8.493862	0.148246	30.464083	12.965469	0.000000	0.163548	-0.096461	1.602110	0.303726	-0.128293	1.702242	0.268694	-0.234534	1.702242	0.186919	-0.234534	1.401846	0.151871	-0.196703	1.301715	0.093452	-0.149418	1.201583	1.168210	-1.091182	8.910456	0.000000	0.000000	24.192210	-1.778436	-3.704769	9.775907	-13.169164	41.432269	52.265176	62.216586	6.046369	16.685823	17.197765	-12.863889	62.701635	42.647943	76.158815	7.527754	-3.517397
0.024390	-0.398315	-3.631945	86.746463	-0.104018	0.790801	0.666323	6.033834	-3.251300	-1.840031	14.920161	0.260406	32.040236	5.355362	0.000000	3.119948	1.205587	-10.488537	8.925114	0.155773	29.703615	11.941190	0.000000	0.163079	-0.076172	1.593345	0.302854	-0.101309	1.692929	0.267923	-0.185205	1.692929	0.186383	-0.185205	1.394177	0.151435	-0.155330	1.294593	0.093183	-0.117991	1.195009	1.164858	-0.861675	8.861707	0.000000	0.000000	24.312143	-2.157142	-4.238716	8.438287	-12.917739	38.717658	52.462726	64.000823	6.945419	17.019949	18.763287	-12.167268	66.150052	40.541621	80.863715	10.042334	-5.803523
0.048780	-0.230074	-3.663514	87.460335	-0.105146	0.791086	0.665477	5.365998	-3.085494	-2.321187	13.969062	0.243806	31.428871	5.113102	0.000000	3.160691	1.072411	-9.410734	9.277144	0.161917	29.170546	11.197981	0.000000	0.163194	-0.055863	1.580628	0.303067	-0.074298	1.679417	0.268111	-0.135825	1.679417	0.186514	-0.135825	1.383050	0.151542	-0.113916	1.284260	0.093249	-0.086532	1.185471	1.165676	-0.631933	8.790980	0.000000	0.000000	24.405119	-2.469249	-4.717292	7.347295	-12.729919	36.421470	52.768865	65.407949	7.557894	17.331226	19.893862	-11.621554	68.575665	39.120568	83.914692	11.671318	-7.575107
0.073171	-0.059082	-3.687080	88.110115	-0.106209	0.791242	0.664783	4.810808	-2.930327	-2.833726	13.191443	0.230234	30.961626	4.995164	0.000000	3.206283	0.932976	-8.532121	9.556671	0.166795	28.841707	10.707913	0.000000	0.163822	-0.035691	1.564975	0.304233	-0.047469	1.662786	0.269143	-0.086780	1.662786	0.187232	-0.086780	1.369353	0.152125	-0.072782	1.271542	0.093608	-0.055286	1.173731	1.170161	-0.403746	8.703921	0.000000	0.000000	24.474899	-2.720157	-5.142601	6.475998	-12.601968	34.515096	53.169768	66.485693	7.913088	17.614224	20.634716	-11.215020	70.096288	38.321022	85.470751	12.496617	-8.862082
0.097561	0.112838	-3.704187	88.694906	-0.107201	0.791282	0.664231	4.361906	-2.785327	-3.363298	12.575415	0.219482	30.625525	4.983559	0.000000	3.256174	0.788945	-7.838748	9.770414	0.170526	28.693933	10.443052	0.000000	0.164893	-0.015815	1.547401	0.306223	-0.021034	1.644114	0.270903	-0.038454	1.644114	0.188456	-0.038454	1.353976	0.153120	-0.032251	1.257263	0.094220	-0.024498	1.160551	1.177814	-0.178907	8.606180	0.000000	0.000000	24.525241	-2.915264	-5.516743	5.797462	-12.530154	32.969929	53.651610	67.281782	8.040294	17.863511	21.031079	-10.935940	70.829735	38.079217	85.690900	12.600144	-9.694380
0.121951	0.283864	-3.716378	89.213812	-0.108114	0.791216	0.663810	4.012932	-2.650021	-3.895555	12.109088	0.211343	30.407592	5.060299	0.000000	3.309816	0.641977	-7.316659	9.925093	0.173226	28.704054	10.375468	0.000000	0.166338	0.003606	1.528922	0.308905	0.004796	1.624479	0.273276	0.008769	1.624479	0.190107	0.008769	1.337806	0.154461	0.007354	1.242249	0.095045	0.005586	1.146691	1.188133	0.040796	8.503403	0.000000	0.000000	24.559902	-3.059970	-5.841821	5.284755	-12.510741	31.757362	54.200565	67.843942	7.968806	18.073655	21.128177	-10.772586	70.893821	38.331390	84.734144	12.063810	-10.101934
0.146341	0.452174	-3.725196	89.665937	-0.108943	0.791056	0.663510	3.757524	-2.523939	-4.416147	11.780573	0.205610	30.294850	5.207395	0.000000	3.366662	0.493734	-6.951903	10.027429	0.175012	28.848905	10.477228	0.000000	0.168085	0.022416	1.510552	0.312151	0.029813	1.604962	0.276147	0.054502	1.604962	0.192104	0.054502	1.321733	0.156084	0.045710	1.227324	0.096044	0.034722	1.132914	1.200615	0.253572	8.401238	0.000000	0.000000	24.582641	-3.159672	-6.119937	4.910944	-12.539997	30.848785	54.802808	68.219901	7.727917	18.239225	20.971240	-10.713230	70.406359	39.013778	82.759491	10.969527	-10.114677
0.170732	0.615947	-3.732186	90.050384	-0.109681	0.790814	0.663321	3.589323	-2.406608	-4.910725	11.577980	0.202074	30.274324	5.406858	0.000000	3.426163	0.345877	-6.730525	10.084140	0.176001	29.105317	10.720403	0.000000	0.170065	0.040455	1.493308	0.315829	0.053805	1.586640	0.279401	0.098361	1.586640	0.194368	0.098361	1.306645	0.157923	0.082495	1.213313	0.097175	0.062664	1.119981	1.214761	0.457631	8.305333	0.000000	0.000000	24.597218	-3.219770	-6.353193	4.649094	-12.614185	30.215591	55.444512	68.457385	7.346920	18.354789	20.605493	-10.746147	69.485164	40.062617	79.925947	9.399208	-9.762541
0.195122	0.773360	-3.738890	90.366256	-0.110321	0.790501	0.663231	3.501969	-2.297557	-5.364939	11.489420	0.200528	30.333037	5.640699	0.000000	3.487771	0.200065	-6.638574	10.101947	0.176312	29.450124	11.077059	0.000000	0.172208	0.057565	1.478206	0.319808	0.076561	1.570593	0.282921	0.139962	1.570593	0.196817	0.139962	1.293430	0.159913	0.117386	1.201042	0.098400	0.089167	1.108654	1.230068	0.651182	8.221336	0.000000	0.000000	24.607389	-3.245661	-6.543691	4.472275	-12.729574	29.829173	56.111853	68.604122	6.855109	18.414917	20.076166	-10.859607	68.248049	41.414143	76.392518	7.434765	-9.075461
0.219512	0.922592	-3.746852	90.612657	-0.110859	0.790129	0.663231	3.489102	-2.196313	-5.764440	11.503004	0.200765	30.458014	5.890931	0.000000	3.550938	0.057961	-6.662094	10.087568	0.176061	29.860158	11.519266	0.000000	0.174444	0.073587	1.466259	0.323960	0.097871	1.557900	0.286594	0.178920	1.557900	0.199372	0.178920	1.282977	0.161989	0.150059	1.191336	0.099677	0.113987	1.099694	1.246035	0.832434	8.154894	0.000000	0.000000	24.616915	-3.242746	-6.693534	4.353551	-12.882428	29.660922	56.791005	68.707839	6.281776	18.414176	19.428486	-11.041885	66.812829	43.004593	72.318210	5.158110	-8.083368
0.243902	1.061820	-3.757616	90.788690	-0.111286	0.789709	0.663309	3.544361	-2.102405	-6.094878	11.606841	0.202578	30.636278	6.139564	0.000000	3.615115	-0.078775	-6.787135	10.047725	0.175366	30.312251	12.019091	0.000000	0.176701	0.088365	1.458485	0.328152	0.117525	1.549640	0.290303	0.214850	1.549640	0.201952	0.214850	1.276174	0.164085	0.180193	1.185019	0.100967	0.136877	1.093864	1.262161	0.999599	8.111655	0.000000	0.000000	24.629553	-3.216423	-6.804823	4.265990	-13.069013	29.682230	57.468142	68.816263	5.656217	18.347135	18.707680	-11.281253	65.297318	44.770202	67.862031	2.651154	-6.816195
0.268293	1.186345	-3.776706	90.879685	-0.111598	0.789302	0.663423	3.668642	-2.029332	-6.414134	11.775498	0.205521	30.875360	6.504234	0.000000	3.673202	-0.200196	-6.954923	9.966299	0.173945	30.763110	12.497596	0.000000	0.179113	0.101991	1.470759	0.332630	0.135648	1.562681	0.294264	0.247981	1.562681	0.204708	0.247981	1.286914	0.166324	0.207980	1.194991	0.102345	0.157984	1.103069	1.279383	1.153741	8.179918	0.000000	0.000000	24.649546	-3.229885	-6.953977	4.064340	-13.324131	29.848719	58.137742	69.147983	4.932526	18.048556	18.073663	-11.512297	64.214605	46.512104	63.367015	0.042804	-5.340635
0.292683	1.294952	-3.796873	90.899489	-0.111769	0.788857	0.663612	3.842551	-1.959670	-6.582137	12.022133	0.209826	31.133124	6.747991	0.000000	3.732741	-0.319534	-7.270493	9.908887	0.172943	31.209839	13.044230	0.000000	0.180287	0.113949	1.477990	0.334811	0.151552	1.570364	0.296194	0.277055	1.570364	0.206050	0.277055	1.293241	0.167415	0.232364	1.200867	0.103016	0.176506	1.108492	1.287772	1.289009	8.220135	0.000000	0.000000	24.685625	-3.186898	-6.981450	3.838499	-13.587560	30.206101	58.728801	69.600630	4.299461	17.761695	17.487729	-11.820976	63.373264	48.332700	58.940204	-2.519017	-3.464603
0.317073	1.383252	-3.833640	90.819288	-0.111755	0.788366	0.663876	4.085041	-1.879640	-6.466734	12.346519	0.215487	31.369218	6.729292	0.000000	3.803269	-0.433866	-7.736172	9.871181	0.172285	31.616603	13.616023	0.000000	0.181857	0.123611	1.493135	0.337727	0.164402	1.586456	0.298774	0.300548	1.586456	0.207845	0.300548	1.306494	0.168873	0.252067	1.213173	0.103913	0.191473	1.119852	1.298989	1.398311	8.304371	0.000000	0.000000	24.746547	-3.152857	-6.970278	3.533129	-13.845551	30.595875	59.237140	70.326403	3.834200	17.410925	17.014735	-12.163413	62.958244	50.101337	54.710973	-5.063507	-1.444063
0.341463	1.458088	-3.876967	90.676622	-0.111616	0.787850	0.664168	4.357345	-1.800481	-6.215575	12.710328	0.221837	31.593169	6.603929	0.000000	3.870790	-0.537647	-8.205596	9.846448	0.171853	31.948534	14.072715	0.000000	0.182481	0.131725	1.505819	0.338885	0.175195	1.599933	0.299797	0.320277	1.599933	0.208557	0.320277	1.317591	0.169452	0.268614	1.223478	0.104269	0.204043	1.129364	1.303441	1.490103	8.374913	0.000000	0.000000	24.833002	-3.060969	-6.855494	3.183254	-14.137701	31.137806	59.691348	71.208599	3.348942	16.947361	16.601090	-12.531770	62.777681	51.814953	50.739643	-7.434668	0.802731
0.365854	1.510696	-3.936648	90.457875	-0.111338	0.787313	0.664478	4.668343	-1.727614	-5.822365	13.103484	0.228699	31.793668	6.372257	0.000000	3.938646	-0.613116	-8.584453	9.820084	0.171393	32.172822	14.277115	0.000000	0.183328	0.136938	1.530544	0.340458	0.182127	1.626203	0.301190	0.332950	1.626203	0.209526	0.332950	1.339226	0.170238	0.279243	1.243567	0.104754	0.212116	1.147908	1.309494	1.549066	8.512428	0.000000	0.000000	24.949031	-2.971587	-6.737583	2.754141	-14.438179	31.638661	60.095184	72.342378	3.071668	16.403214	16.294362	-12.886687	62.918462	53.388176	47.130794	-9.609729	3.101860
0.390244	1.550112	-4.009529	90.151121	-0.110901	0.786792	0.664782	5.002868	-1.643801	-5.248336	13.499311	0.235607	31.953480	6.004477	0.000000	3.994055	-0.676236	-8.944369	9.777450	0.170649	32.288750	14.324927	0.000000	0.184655	0.140331	1.572818	0.342922	0.186640	1.671119	0.303369	0.341200	1.671119	0.211042	0.341200	1.376216	0.171470	0.286162	1.277915	0.105512	0.217372	1.179614	1.318970	1.587447	8.747544	0.000000	0.000000	25.088463	-2.895625	-6.623299	2.255923	-14.749249	32.087435	60.466765	73.614111	2.963452	15.835585	16.086429	-13.202474	63.324824	54.771017	43.932857	-11.535913	5.414344
0.414634	1.569639	-4.087896	89.776384	-0.110329	0.786311	0.665102	5.352064	-1.561481	-4.531731	13.894068	0.242497	32.074322	5.528487	0.000000	4.038312	-0.716417	-9.228215	9.721657	0.169675	32.307609	14.175947	0.000000	0.185274	0.141159	1.629629	0.344072	0.187741	1.731481	0.304386	0.343214	1.731481	0.211749	0.343214	1.425926	0.172045	0.287851	1.324074	0.105865	0.218655	1.222222	1.323391	1.596818	9.063510	0.000000	0.000000	25.239948	-2.805983	-6.500714	1.743083	-15.068050	32.507306	60.790767	74.927073	3.060126	15.284853	15.991633	-13.490197	63.941177	55.953547	41.370187	-13.106343	7.661780
0.439024	1.579118	-4.177043	89.366838	-0.109672	0.785888	0.665425	5.700998	-1.488146	-3.876481	14.262073	0.248920	32.174499	5.172725	0.000000	4.087180	-0.751313	-9.511442	9.667141	0.168723	32.249144	13.953071	0.000000	0.186445	0.140165	1.701411	0.346246	0.186419	1.807749	0.306310	0.340797	1.807749	0.213087	0.340797	1.488734	0.173132	0.285824	1.382396	0.106534	0.217115	1.276058	1.331755	1.585574	9.462736	0.000000	0.000000	25.406727	-2.740710	-6.434318	1.174137	-15.348292	32.723496	61.080993	76.426250	3.377703	14.781612	16.000663	-13.717185	64.652721	56.878363	39.633671	-14.107243	9.875985
0.463415	1.570070	-4.269686	88.923118	-0.108902	0.785528	0.665759	6.040306	-1.423589	-3.201609	14.598917	0.254799	32.226654	4.809759	0.000000	4.133647	-0.775002	-9.799982	9.614641	0.167807	32.111820	13.664071	0.000000	0.187241	0.135846	1.788020	0.347725	0.180675	1.899772	0.307618	0.330295	1.899772	0.213998	0.330295	1.564518	0.173872	0.277016	1.452767	0.106990	0.210425	1.341015	1.337444	1.536712	9.944433	0.000000	0.000000	25.582377	-2.668969	-6.403198	0.614812	-15.590939	32.832895	61.303636	77.899615	3.862533	14.350701	16.155399	-13.898076	65.533838	57.522340	38.828212	-14.529038	11.945948
